<svg width="24" height="24" viewBox="0 0 24 24" fill="none" xmlns="http://www.w3.org/2000/svg">
<path d="M21.9387 17.7893V2.96489C21.9387 2.70277 21.8336 2.4514 21.6466 2.26606C21.4596 2.08072 21.2059 1.97659 20.9415 1.97659H8.97473C8.71025 1.97659 8.4566 2.08072 8.26959 2.26606C8.08257 2.4514 7.9775 2.70277 7.9775 2.96489V14.3856C7.37384 14.0299 6.68535 13.8402 5.98305 13.8361C5.19412 13.8361 4.4229 14.068 3.76693 14.5023C3.11096 14.9367 2.59969 15.5541 2.29778 16.2765C1.99587 16.9988 1.91688 17.7937 2.07079 18.5605C2.2247 19.3273 2.60461 20.0317 3.16247 20.5846C3.72032 21.1374 4.43108 21.514 5.20485 21.6665C5.97863 21.819 6.78066 21.7407 7.50954 21.4415C8.23842 21.1423 8.8614 20.6356 9.29971 19.9855C9.73801 19.3354 9.97196 18.5711 9.97196 17.7893V3.95318H19.9442V14.3856C19.3406 14.0299 18.6521 13.8402 17.9498 13.8361C17.1608 13.8361 16.3896 14.068 15.7337 14.5023C15.0777 14.9367 14.5664 15.5541 14.2645 16.2765C13.9626 16.9988 13.8836 17.7937 14.0375 18.5605C14.1914 19.3273 14.5713 20.0317 15.1292 20.5846C15.687 21.1374 16.3978 21.514 17.1716 21.6665C17.9453 21.819 18.7474 21.7407 19.4763 21.4415C20.2051 21.1423 20.8281 20.6356 21.2664 19.9855C21.7047 19.3354 21.9387 18.5711 21.9387 17.7893ZM5.98305 19.7659C5.58858 19.7659 5.20298 19.6499 4.87499 19.4327C4.547 19.2156 4.29137 18.9069 4.14041 18.5457C3.98946 18.1845 3.94996 17.7871 4.02692 17.4037C4.10388 17.0202 4.29383 16.668 4.57276 16.3916C4.85169 16.1152 5.20707 15.9269 5.59395 15.8507C5.98084 15.7744 6.38186 15.8135 6.74629 15.9631C7.11073 16.1128 7.42222 16.3661 7.64138 16.6911C7.86053 17.0162 7.9775 17.3983 7.9775 17.7893C7.9775 18.3135 7.76737 18.8162 7.39334 19.1869C7.01931 19.5576 6.51201 19.7659 5.98305 19.7659ZM15.9553 17.7893C15.9553 17.3983 16.0723 17.0162 16.2914 16.6911C16.5106 16.3661 16.8221 16.1128 17.1865 15.9631C17.551 15.8135 17.952 15.7744 18.3389 15.8507C18.7258 15.9269 19.0811 16.1152 19.3601 16.3916C19.639 16.668 19.8289 17.0202 19.9059 17.4037C19.9829 17.7871 19.9434 18.1845 19.7924 18.5457C19.6415 18.9069 19.3858 19.2156 19.0578 19.4327C18.7298 19.6499 18.3442 19.7659 17.9498 19.7659C17.4208 19.7659 16.9135 19.5576 16.5395 19.1869C16.1654 18.8162 15.9553 18.3135 15.9553 17.7893Z" fill="white"/>
<ellipse cx="8.97523" cy="3.95317" rx="3.98891" ry="3.95317" fill="white"/>
<path d="M8.64251 5.60033V4.28261H7.31288C7.22472 4.28261 7.14017 4.2479 7.07783 4.18612C7.01549 4.12434 6.98047 4.04055 6.98047 3.95318C6.98047 3.86581 7.01549 3.78202 7.07783 3.72024C7.14017 3.65846 7.22472 3.62375 7.31288 3.62375H8.64251V2.30602C8.64251 2.21865 8.67754 2.13486 8.73987 2.07308C8.80221 2.0113 8.88676 1.97659 8.97492 1.97659C9.06308 1.97659 9.14763 2.0113 9.20997 2.07308C9.27231 2.13486 9.30733 2.21865 9.30733 2.30602V3.62375H10.637C10.7251 3.62375 10.8097 3.65846 10.872 3.72024C10.9344 3.78202 10.9694 3.86581 10.9694 3.95318C10.9694 4.04055 10.9344 4.12434 10.872 4.18612C10.8097 4.2479 10.7251 4.28261 10.637 4.28261H9.30733V5.60033C9.30733 5.6877 9.27231 5.7715 9.20997 5.83328C9.14763 5.89506 9.06308 5.92976 8.97492 5.92976C8.88676 5.92976 8.80221 5.89506 8.73987 5.83328C8.67754 5.7715 8.64251 5.6877 8.64251 5.60033Z" fill="#121111"/>
</svg>
