<svg width="17" height="13" viewBox="0 0 17 13" fill="none" xmlns="http://www.w3.org/2000/svg">
<path d="M0.815148 12.5669C0.963608 12.684 1.16493 12.7499 1.37486 12.7499C1.58478 12.7499 1.78611 12.684 1.93456 12.5669L4.4679 10.5669C5.67377 11.1714 7.07138 11.4949 8.49986 11.5C11.9238 11.5 15.0129 9.62499 16.3674 6.71624C16.4331 6.57674 16.4331 6.42324 16.3674 6.28374C15.8344 5.10988 14.9558 4.05276 13.804 3.19936L16.1885 1.31686C16.2641 1.25921 16.3244 1.19024 16.3659 1.11399C16.4074 1.03774 16.4293 0.955728 16.4302 0.87274C16.4311 0.789753 16.4111 0.707454 16.3713 0.630643C16.3315 0.553833 16.2727 0.484051 16.1983 0.425368C16.124 0.366685 16.0356 0.320277 15.9383 0.288851C15.841 0.257426 15.7368 0.241612 15.6317 0.242333C15.5265 0.243054 15.4227 0.260296 15.3261 0.293051C15.2295 0.325807 15.1421 0.373421 15.0691 0.433115L12.5358 2.43311C11.3288 1.82797 9.92968 1.5045 8.49986 1.49999C5.0759 1.49999 1.98681 3.37499 0.632273 6.28374C0.566586 6.42324 0.566586 6.57674 0.632273 6.71624C1.1665 7.8904 2.04646 8.94756 3.19965 9.80061L0.815148 11.6831C0.666733 11.8003 0.583359 11.9593 0.583359 12.125C0.583359 12.2907 0.666733 12.4497 0.815148 12.5669ZM12.6688 4.09249C13.5931 4.75881 14.3139 5.58196 14.777 6.49999C13.6069 8.78561 11.1701 10.25 8.49986 10.25C7.49297 10.2464 6.50368 10.0413 5.62452 9.65374L6.90148 8.64561C7.38405 8.87536 7.93634 8.99781 8.49986 8.99999C9.33971 8.99999 10.1452 8.7366 10.739 8.26776C11.3329 7.79891 11.6665 7.16303 11.6665 6.49999C11.6638 6.0551 11.5087 5.61909 11.2176 5.23811L12.6688 4.09249ZM6.9759 6.81936C6.93835 6.71544 6.91838 6.60805 6.91652 6.49999C6.91652 6.16847 7.08334 5.85053 7.38027 5.61611C7.6772 5.38169 8.07993 5.24999 8.49986 5.24999C8.63673 5.25146 8.77276 5.26722 8.9044 5.29686L6.9759 6.81936ZM10.0238 6.18061C10.0614 6.28454 10.0813 6.39193 10.0832 6.49999C10.0832 6.83151 9.91638 7.14945 9.61944 7.38387C9.32251 7.61829 8.91978 7.74999 8.49986 7.74999C8.36298 7.74852 8.22695 7.73276 8.09531 7.70311L10.0238 6.18061ZM2.22273 6.49999C3.39281 4.21436 5.82957 2.74999 8.49986 2.74999C9.50675 2.75358 10.496 2.95872 11.3752 3.34624L10.0982 4.35436C9.61566 4.12461 9.06338 4.00217 8.49986 3.99999C7.66 3.99999 6.85455 4.26338 6.26068 4.73222C5.66682 5.20106 5.33319 5.83695 5.33319 6.49999C5.33595 6.94487 5.49105 7.38089 5.78207 7.76186L4.33094 8.90749C3.40664 8.24117 2.68583 7.41802 2.22273 6.49999Z" fill="white" fill-opacity="0.27"/>
</svg>
