<svg width="20" height="20" viewBox="0 0 20 20" fill="none" xmlns="http://www.w3.org/2000/svg">
<path d="M12.5714 1H17.7143C18.0553 1 18.3823 1.13546 18.6234 1.37658C18.8645 1.6177 19 1.94472 19 2.28571V7.42857C19 7.76956 18.8645 8.09659 18.6234 8.33771C18.3823 8.57883 18.0553 8.71429 17.7143 8.71429H12.5714C12.2304 8.71429 11.9034 8.57883 11.6623 8.33771C11.4212 8.09659 11.2857 7.76956 11.2857 7.42857V2.28571C11.2857 1.94472 11.4212 1.6177 11.6623 1.37658C11.9034 1.13546 12.2304 1 12.5714 1ZM2.28571 1H7.42857C7.76956 1 8.09659 1.13546 8.33771 1.37658C8.57883 1.6177 8.71429 1.94472 8.71429 2.28571V7.42857C8.71429 7.76956 8.57883 8.09659 8.33771 8.33771C8.09659 8.57883 7.76956 8.71429 7.42857 8.71429H2.28571C1.94472 8.71429 1.6177 8.57883 1.37658 8.33771C1.13546 8.09659 1 7.76956 1 7.42857V2.28571C1 1.94472 1.13546 1.6177 1.37658 1.37658C1.6177 1.13546 1.94472 1 2.28571 1ZM12.5714 11.2857H17.7143C18.0553 11.2857 18.3823 11.4212 18.6234 11.6623C18.8645 11.9034 19 12.2304 19 12.5714V17.7143C19 18.0553 18.8645 18.3823 18.6234 18.6234C18.3823 18.8645 18.0553 19 17.7143 19H12.5714C12.2304 19 11.9034 18.8645 11.6623 18.6234C11.4212 18.3823 11.2857 18.0553 11.2857 17.7143V12.5714C11.2857 12.2304 11.4212 11.9034 11.6623 11.6623C11.9034 11.4212 12.2304 11.2857 12.5714 11.2857ZM2.28571 11.2857H7.42857C7.76956 11.2857 8.09659 11.4212 8.33771 11.6623C8.57883 11.9034 8.71429 12.2304 8.71429 12.5714V17.7143C8.71429 18.0553 8.57883 18.3823 8.33771 18.6234C8.09659 18.8645 7.76956 19 7.42857 19H2.28571C1.94472 19 1.6177 18.8645 1.37658 18.6234C1.13546 18.3823 1 18.0553 1 17.7143V12.5714C1 12.2304 1.13546 11.9034 1.37658 11.6623C1.6177 11.4212 1.94472 11.2857 2.28571 11.2857Z" stroke="white" stroke-linecap="round" stroke-linejoin="round"/>
</svg>
