<svg width="24" height="24" viewBox="0 0 24 24" fill="none" xmlns="http://www.w3.org/2000/svg">
<path d="M19.1697 8.46849C20.0095 8.46849 20.8305 8.22168 21.5288 7.75928C22.2271 7.29688 22.7713 6.63964 23.0927 5.87069C23.4141 5.10174 23.4982 4.25561 23.3343 3.4393C23.1705 2.62298 22.7661 1.87315 22.1722 1.28462C21.5784 0.696093 20.8218 0.295299 19.9981 0.132925C19.1744 -0.0294503 18.3206 0.0538863 17.5447 0.372396C16.7688 0.690906 16.1056 1.23028 15.639 1.92232C15.1725 2.61436 14.9234 3.42797 14.9234 4.26028C14.9291 4.65716 14.9924 5.05116 15.1113 5.43016L7.55723 8.94823C7.00097 8.27935 6.24987 7.79701 5.40658 7.56713C4.56329 7.33725 3.66894 7.37105 2.84576 7.66391C2.02258 7.95677 1.31073 8.49439 0.80749 9.20332C0.304253 9.91224 0.0341797 10.7579 0.0341797 11.6247C0.0341797 12.4914 0.304253 13.3371 0.80749 14.046C1.31073 14.7549 2.02258 15.2925 2.84576 15.5854C3.66894 15.8783 4.56329 15.9121 5.40658 15.6822C6.24987 15.4523 7.00097 14.97 7.55723 14.3011L15.1113 17.8191C14.9924 18.1981 14.9291 18.5921 14.9234 18.989C14.921 19.9643 15.2596 20.9102 15.8816 21.6659C16.5035 22.4216 17.3705 22.9405 18.3349 23.1341C19.2994 23.3278 20.3018 23.1843 21.1715 22.7281C22.0413 22.272 22.7247 21.5312 23.1055 20.632C23.4863 19.7328 23.541 18.7305 23.2602 17.7958C22.9795 16.8611 22.3807 16.0517 21.5656 15.5052C20.7506 14.9588 19.7697 14.709 18.7898 14.7985C17.8099 14.8879 16.8915 15.3111 16.1909 15.9959L8.47442 12.4032C8.58058 11.8898 8.58058 11.3605 8.47442 10.8472L16.1909 7.25337C16.9836 8.03148 18.054 8.46815 19.1697 8.46849ZM19.1697 2.15617C19.5896 2.15617 20.0001 2.27958 20.3492 2.51078C20.6984 2.74198 20.9705 3.0706 21.1312 3.45507C21.2919 3.83955 21.3339 4.26261 21.252 4.67077C21.1701 5.07893 20.9679 5.45384 20.671 5.74811C20.374 6.04237 19.9957 6.24277 19.5839 6.32396C19.172 6.40514 18.7451 6.36347 18.3572 6.20422C17.9692 6.04496 17.6377 5.77528 17.4044 5.42926C17.1711 5.08324 17.0465 4.67643 17.0465 4.26028C17.0465 3.70223 17.2702 3.16705 17.6684 2.77245C18.0666 2.37785 18.6066 2.15617 19.1697 2.15617ZM4.30778 13.7288C3.88786 13.7288 3.47738 13.6054 3.12823 13.3742C2.77908 13.143 2.50696 12.8143 2.34626 12.4299C2.18557 12.0454 2.14352 11.6223 2.22545 11.2142C2.30737 10.806 2.50957 10.4311 2.8065 10.1368C3.10342 9.84256 3.48173 9.64216 3.89358 9.56098C4.30542 9.47979 4.73231 9.52146 5.12026 9.68071C5.50821 9.83996 5.8398 10.1097 6.07309 10.4557C6.30639 10.8017 6.43091 11.2085 6.43091 11.6247C6.43091 12.1827 6.20722 12.7179 5.80906 13.1125C5.41089 13.5071 4.87087 13.7288 4.30778 13.7288ZM19.1697 16.8849C19.5896 16.8849 20.0001 17.0083 20.3492 17.2395C20.6984 17.4707 20.9705 17.7993 21.1312 18.1838C21.2919 18.5683 21.3339 18.9914 21.252 19.3995C21.1701 19.8077 20.9679 20.1826 20.671 20.4769C20.374 20.7711 19.9957 20.9715 19.5839 21.0527C19.172 21.1339 18.7451 21.0922 18.3572 20.933C17.9692 20.7737 17.6377 20.504 17.4044 20.158C17.1711 19.812 17.0465 19.4052 17.0465 18.989C17.0465 18.431 17.2702 17.8958 17.6684 17.5012C18.0666 17.1066 18.6066 16.8849 19.1697 16.8849Z" fill="white"/>
</svg>
