<svg width="17" height="12" viewBox="0 0 17 12" fill="none" xmlns="http://www.w3.org/2000/svg">
<path d="M0.583496 0.666667C0.583496 0.489856 0.666904 0.320286 0.81537 0.195262C0.963836 0.0702379 1.1652 0 1.37516 0H15.6252C15.8351 0 16.0365 0.0702379 16.185 0.195262C16.3334 0.320286 16.4168 0.489856 16.4168 0.666667C16.4168 0.843478 16.3334 1.01305 16.185 1.13807C16.0365 1.2631 15.8351 1.33333 15.6252 1.33333H1.37516C1.1652 1.33333 0.963836 1.2631 0.81537 1.13807C0.666904 1.01305 0.583496 0.843478 0.583496 0.666667ZM1.37516 6.66667H15.6252C15.8351 6.66667 16.0365 6.59643 16.185 6.4714C16.3334 6.34638 16.4168 6.17681 16.4168 6C16.4168 5.82319 16.3334 5.65362 16.185 5.5286C16.0365 5.40357 15.8351 5.33333 15.6252 5.33333H1.37516C1.1652 5.33333 0.963836 5.40357 0.81537 5.5286C0.666904 5.65362 0.583496 5.82319 0.583496 6C0.583496 6.17681 0.666904 6.34638 0.81537 6.4714C0.963836 6.59643 1.1652 6.66667 1.37516 6.66667ZM1.37516 12H15.6252C15.8351 12 16.0365 11.9298 16.185 11.8047C16.3334 11.6797 16.4168 11.5101 16.4168 11.3333C16.4168 11.1565 16.3334 10.987 16.185 10.8619C16.0365 10.7369 15.8351 10.6667 15.6252 10.6667H1.37516C1.1652 10.6667 0.963836 10.7369 0.81537 10.8619C0.666904 10.987 0.583496 11.1565 0.583496 11.3333C0.583496 11.5101 0.666904 11.6797 0.81537 11.8047C0.963836 11.9298 1.1652 12 1.37516 12Z" fill="white"/>
</svg>
