<svg width="12" height="13" viewBox="0 0 12 13" fill="none" xmlns="http://www.w3.org/2000/svg">
<path d="M6 0C5.34073 0 4.69626 0.195497 4.1481 0.561768C3.59994 0.928039 3.17269 1.44863 2.9204 2.05772C2.66811 2.66681 2.6021 3.33703 2.73072 3.98363C2.85933 4.63024 3.1768 5.22418 3.64298 5.69036C4.10915 6.15653 4.7031 6.474 5.3497 6.60262C5.9963 6.73124 6.66652 6.66522 7.27561 6.41293C7.8847 6.16064 8.40529 5.7334 8.77157 5.18523C9.13784 4.63707 9.33333 3.9926 9.33333 3.33333C9.33333 2.44928 8.98214 1.60143 8.35702 0.976311C7.7319 0.351189 6.88406 0 6 0ZM6 5.33333C5.60444 5.33333 5.21776 5.21604 4.88886 4.99627C4.55996 4.77651 4.30362 4.46415 4.15224 4.0987C4.00087 3.73325 3.96126 3.33111 4.03843 2.94315C4.1156 2.55519 4.30608 2.19882 4.58579 1.91912C4.86549 1.63941 5.22186 1.44893 5.60982 1.37176C5.99778 1.29459 6.39991 1.3342 6.76537 1.48557C7.13082 1.63695 7.44318 1.89329 7.66294 2.22219C7.8827 2.55109 8 2.93777 8 3.33333C8 3.86377 7.78929 4.37247 7.41421 4.74755C7.03914 5.12262 6.53043 5.33333 6 5.33333ZM12 12.6667V12C12 10.7623 11.5083 9.57534 10.6332 8.70017C9.758 7.825 8.57101 7.33333 7.33333 7.33333H4.66667C3.42899 7.33333 2.242 7.825 1.36683 8.70017C0.491665 9.57534 0 10.7623 0 12V12.6667H1.33333V12C1.33333 11.1159 1.68452 10.2681 2.30964 9.64298C2.93477 9.01786 3.78261 8.66667 4.66667 8.66667H7.33333C8.21739 8.66667 9.06524 9.01786 9.69036 9.64298C10.3155 10.2681 10.6667 11.1159 10.6667 12V12.6667H12Z" fill="white" fill-opacity="0.27"/>
</svg>
