<svg width="88" height="88" viewBox="0 0 88 88" fill="none" xmlns="http://www.w3.org/2000/svg">
<path d="M44.0002 22.5714V65.8285M65.4288 44H22.5716M86.8574 72.5714V15.4285C86.8574 11.6397 85.3523 8.0061 82.6732 5.32701C79.9941 2.64792 76.3604 1.14282 72.5716 1.14282H15.4288C11.64 1.14282 8.00635 2.64792 5.32725 5.32701C2.64816 8.0061 1.14307 11.6397 1.14307 15.4285V72.5714C1.14307 76.3602 2.64816 79.9938 5.32725 82.6729C8.00635 85.352 11.64 86.8571 15.4288 86.8571H72.5716C76.3604 86.8571 79.9941 85.352 82.6732 82.6729C85.3523 79.9938 86.8574 76.3602 86.8574 72.5714Z" stroke="white" stroke-linecap="round" stroke-linejoin="round"/>
</svg>
