<svg width="17" height="17" viewBox="0 0 17 17" fill="none" xmlns="http://www.w3.org/2000/svg">
<path d="M16.0644 5.46637L8.93941 0.716374C8.80931 0.629618 8.65642 0.583339 8.50004 0.583374C8.34393 0.583495 8.19134 0.629768 8.06145 0.716374L0.936454 5.46637C0.795137 5.5606 0.687873 5.69779 0.630505 5.85766C0.573138 6.01753 0.56871 6.19161 0.617875 6.35419C0.66704 6.51677 0.76719 6.65923 0.903534 6.76053C1.03988 6.86182 1.20518 6.91658 1.37504 6.91671H2.1667V15.625C2.1667 15.835 2.25011 16.0364 2.39858 16.1848C2.54704 16.3333 2.74841 16.4167 2.95837 16.4167H14.0417C14.2517 16.4167 14.453 16.3333 14.6015 16.1848C14.75 16.0364 14.8334 15.835 14.8334 15.625V6.91671H15.625C15.795 6.91692 15.9606 6.8624 16.0972 6.76123C16.2338 6.66006 16.3342 6.51761 16.3836 6.35495C16.4329 6.19229 16.4286 6.01806 16.3713 5.85803C16.314 5.698 16.2066 5.56068 16.0652 5.46637H16.0644ZM13.25 14.8334H3.75004V5.49171L8.50004 2.32504L13.25 5.49171V14.8334Z" fill="white"/>
</svg>
