<svg width="21" height="19" viewBox="0 0 21 19" fill="none" xmlns="http://www.w3.org/2000/svg">
<path d="M20 14.9442V6.1353C19.9995 6.0493 19.9782 5.96455 19.9377 5.88759C19.8972 5.81064 19.8386 5.74354 19.7664 5.69148C19.6941 5.63941 19.6103 5.60377 19.5212 5.58732C19.4321 5.57086 19.3403 5.57402 19.2527 5.59656L14.511 6.84361M20 8.76447L11.3652 11.038M9.33239 17.752V13.193M2.79535 9.78793V13.1915M1 11.4897H4.5907M7.15707 3.74623C7.8616 2.84433 8.29539 1 8.29539 1C8.29539 1 8.72919 2.84433 9.43213 3.74623C10.143 4.65564 12.4054 5.45099 12.4054 5.45099C12.4054 5.45099 10.1414 6.24635 9.43213 7.15725C8.72919 8.05766 8.29539 9.90198 8.29539 9.90198C8.29539 9.90198 7.8616 8.05916 7.15707 7.15575C6.4478 6.24785 4.1854 5.45099 4.1854 5.45099C4.1854 5.45099 6.4478 4.65564 7.15707 3.74623Z" stroke="white" stroke-linecap="round" stroke-linejoin="round"/>
</svg>
