<svg width="273" height="37" viewBox="0 0 273 37" fill="none" xmlns="http://www.w3.org/2000/svg">
<path d="M1.40625 29C0.46875 29 0.16276 28.5703 0.488281 27.7109L10.0586 2.57422C10.4622 1.51953 11.0742 0.992188 11.8945 0.992188H14.6289C15.4492 0.992188 16.0612 1.51953 16.4648 2.57422L26.0352 27.7109C26.3607 28.5703 26.0547 29 25.1172 29H22.0117C21.1523 29 20.5534 28.5508 20.2148 27.6523L18.2227 22.3984H8.30078L6.30859 27.6523C5.97005 28.5508 5.37109 29 4.51172 29H1.40625ZM10.1172 17.5547H16.4062L14.0039 11.3438C13.7174 10.6146 13.5417 10.0872 13.4766 9.76172C13.4245 9.42318 13.3659 8.92839 13.3008 8.27734H13.2227C13.1576 8.92839 13.0924 9.42318 13.0273 9.76172C12.9753 10.0872 12.806 10.6146 12.5195 11.3438L10.1172 17.5547ZM34.0148 36.8125C33.2336 36.8125 32.843 36.4219 32.843 35.6406V9.66406C32.843 8.88281 33.2336 8.49219 34.0148 8.49219H37.1008C37.7518 8.49219 38.1034 8.88281 38.1555 9.66406L38.2336 10.7969H38.3117C38.9888 9.67708 39.744 8.94792 40.5773 8.60938C41.4107 8.27083 42.4133 8.10156 43.5852 8.10156C46.6451 8.10156 48.7935 9.16276 50.0305 11.2852C51.2805 13.3945 51.9055 15.8815 51.9055 18.7461C51.9055 21.6107 51.2805 24.1042 50.0305 26.2266C48.7935 28.3359 46.6451 29.3906 43.5852 29.3906C42.4133 29.3906 41.4107 29.2214 40.5773 28.8828C39.744 28.5443 38.9888 27.8151 38.3117 26.6953H38.2336C38.2857 27.2161 38.3117 27.737 38.3117 28.2578V35.6406C38.3117 36.4219 37.9211 36.8125 37.1398 36.8125H34.0148ZM38.3117 19.625C38.3117 21.3828 38.6568 22.8151 39.3469 23.9219C40.05 25.0156 40.8898 25.5625 41.8664 25.5625C43.6242 25.5625 44.7701 24.9505 45.3039 23.7266C45.8508 22.4896 46.1242 20.8294 46.1242 18.7461C46.1242 16.6628 45.8508 15.0091 45.3039 13.7852C44.7701 12.5482 43.6242 11.9297 41.8664 11.9297C40.8898 11.9297 40.05 12.4831 39.3469 13.5898C38.6568 14.6836 38.3117 16.1094 38.3117 17.8672V19.625ZM58.8305 18.7461C58.8305 15.4518 59.6508 12.8542 61.2914 10.9531C62.9451 9.05208 65.2758 8.10156 68.2836 8.10156C71.7732 8.10156 74.3643 9 76.057 10.7969C77.7497 12.5938 78.5961 15.4844 78.5961 19.4688C78.5961 20.25 78.2315 20.6406 77.5023 20.6406H64.6117C64.8201 22.8021 65.3539 24.1628 66.2133 24.7227C67.0727 25.2826 68.0687 25.5625 69.2016 25.5625C70.2823 25.5625 71.1091 25.4193 71.682 25.1328C72.2549 24.8464 72.7367 24.4557 73.1273 23.9609C73.5701 23.388 74.1169 23.2969 74.768 23.6875L76.7211 24.8789C77.4893 25.3477 77.6 25.9076 77.0531 26.5586C76.2589 27.5091 75.3279 28.2188 74.2602 28.6875C73.1924 29.1562 71.5062 29.3906 69.2016 29.3906C65.4646 29.3906 62.8018 28.4401 61.2133 26.5391C59.6247 24.638 58.8305 22.0404 58.8305 18.7461ZM64.6312 16.7344H73.1273C73.1273 15.3281 72.7758 14.1823 72.0727 13.2969C71.3695 12.3984 70.2497 11.9492 68.7133 11.9492C67.4893 11.9492 66.5193 12.3789 65.8031 13.2383C65.087 14.0846 64.6964 15.25 64.6312 16.7344ZM87.8258 29C87.0445 29 86.6539 28.6094 86.6539 27.8281V9.66406C86.6539 8.88281 87.0445 8.49219 87.8258 8.49219H90.9117C91.693 8.49219 92.0836 8.88281 92.0836 9.66406V11.2656H92.1617C92.5003 10.4323 93.0667 9.69661 93.8609 9.05859C94.6552 8.42057 95.5927 8.10156 96.6734 8.10156C97.4156 8.10156 98.0276 8.19271 98.5094 8.375C98.9651 8.54427 99.1409 8.85677 99.0367 9.3125L98.4898 11.6367C98.3727 12.1576 98.0211 12.3138 97.4352 12.1055C97.0966 11.9883 96.7711 11.9297 96.4586 11.9297C95.2086 11.9297 94.1734 12.6784 93.3531 14.1758C92.5328 15.6732 92.1227 17.8542 92.1227 20.7188V27.8281C92.1227 28.6094 91.732 29 90.9508 29H87.8258ZM104.712 18.7461C104.712 15.4258 105.565 12.8216 107.27 10.9336C108.989 9.04557 111.541 8.10156 114.927 8.10156C118.312 8.10156 120.858 9.04557 122.563 10.9336C124.282 12.8216 125.141 15.4258 125.141 18.7461C125.141 22.0664 124.282 24.6706 122.563 26.5586C120.858 28.4466 118.312 29.3906 114.927 29.3906C111.541 29.3906 108.989 28.4466 107.27 26.5586C105.565 24.6706 104.712 22.0664 104.712 18.7461ZM110.493 18.7461C110.493 21.2201 110.871 22.9779 111.626 24.0195C112.394 25.0482 113.494 25.5625 114.927 25.5625C116.359 25.5625 117.453 25.0482 118.208 24.0195C118.976 22.9779 119.36 21.2201 119.36 18.7461C119.36 16.2721 118.976 14.5208 118.208 13.4922C117.453 12.4505 116.359 11.9297 114.927 11.9297C113.494 11.9297 112.394 12.4505 111.626 13.4922C110.871 14.5208 110.493 16.2721 110.493 18.7461ZM152.468 29C151.557 29 151.101 28.5117 151.101 27.5352V2.45703C151.101 1.48047 151.557 0.992188 152.468 0.992188H158.132C158.887 0.992188 159.428 1.51302 159.753 2.55469L165.046 19.6836C165.28 20.4258 165.443 21.0378 165.534 21.5195C165.626 21.9883 165.704 22.5482 165.769 23.1992H165.886C165.951 22.5482 166.029 21.9883 166.12 21.5195C166.211 21.0378 166.374 20.4258 166.609 19.6836L171.902 2.55469C172.227 1.51302 172.767 0.992188 173.523 0.992188H179.187C180.098 0.992188 180.554 1.48047 180.554 2.45703V27.5352C180.554 28.5117 180.098 29 179.187 29H176.218C175.307 29 174.851 28.5117 174.851 27.5352V11.4023C174.851 10.6211 174.883 9.83984 174.948 9.05859H174.812L169.167 27.418C168.842 28.4727 168.282 29 167.488 29H164.167C163.373 29 162.813 28.4727 162.488 27.418L156.843 9.05859H156.706C156.771 9.83984 156.804 10.6211 156.804 11.4023V27.5352C156.804 28.5117 156.348 29 155.437 29H152.468ZM190.096 20.4844V9.66406C190.096 8.88281 190.487 8.49219 191.268 8.49219H194.393C195.174 8.49219 195.565 8.88281 195.565 9.66406V19.0781C195.565 21.9167 195.76 23.707 196.151 24.4492C196.541 25.1914 197.362 25.5625 198.612 25.5625C199.94 25.5625 200.949 25.0352 201.639 23.9805C202.329 22.9128 202.674 20.7057 202.674 17.3594V9.66406C202.674 8.88281 203.065 8.49219 203.846 8.49219H206.971C207.752 8.49219 208.143 8.88281 208.143 9.66406V27.8281C208.143 28.6094 207.752 29 206.971 29H203.885C203.104 29 202.713 28.6094 202.713 27.8281V26.6953H202.635C202.036 27.724 201.274 28.4336 200.35 28.8242C199.426 29.2018 198.332 29.3906 197.069 29.3906C195.077 29.3906 193.416 28.7526 192.088 27.4766C190.76 26.2005 190.096 23.8698 190.096 20.4844ZM216.845 27.6328C216.207 27.1771 216.032 26.6888 216.318 26.168L217.314 24.3516C217.666 23.7005 218.212 23.6224 218.955 24.1172C219.697 24.612 220.569 24.9766 221.572 25.2109C222.587 25.4453 223.512 25.5625 224.345 25.5625C224.931 25.5625 225.478 25.5039 225.986 25.3867C226.494 25.2695 226.923 25.0417 227.275 24.7031C227.627 24.3646 227.802 23.8698 227.802 23.2188C227.802 22.8281 227.698 22.4961 227.49 22.2227C227.282 21.9492 227.015 21.7409 226.689 21.5977C226.364 21.4544 226.018 21.3372 225.654 21.2461C225.172 21.1289 224.476 20.9336 223.564 20.6602C222.666 20.3867 221.8 20.0677 220.966 19.7031C220.276 19.4036 219.599 18.987 218.935 18.4531C218.284 17.9062 217.802 17.3008 217.49 16.6367C217.19 15.9727 217.041 15.1523 217.041 14.1758C217.041 12.8607 217.418 11.7083 218.173 10.7188C218.942 9.72917 219.931 9.04557 221.142 8.66797C222.353 8.29036 223.864 8.10156 225.673 8.10156C226.897 8.10156 228.089 8.27734 229.248 8.62891C230.407 8.98047 231.233 9.3125 231.728 9.625C232.509 10.1198 232.705 10.6471 232.314 11.207L231.123 12.9453C230.758 13.4661 230.172 13.5052 229.365 13.0625C228.753 12.724 228.147 12.4505 227.548 12.2422C226.962 12.0339 226.305 11.9297 225.576 11.9297C225.081 11.9297 224.606 11.9818 224.15 12.0859C223.694 12.1901 223.304 12.3854 222.978 12.6719C222.666 12.9583 222.509 13.3359 222.509 13.8047C222.509 14.2995 222.653 14.6901 222.939 14.9766C223.239 15.25 223.577 15.4518 223.955 15.582C224.345 15.7122 224.716 15.8359 225.068 15.9531C225.797 16.1875 226.533 16.4154 227.275 16.6367C228.017 16.8451 228.772 17.099 229.541 17.3984C230.205 17.6589 230.849 18.0299 231.474 18.5117C232.099 18.9935 232.555 19.6055 232.841 20.3477C233.128 21.0898 233.271 21.9362 233.271 22.8867C233.271 24.1497 232.893 25.3216 232.138 26.4023C231.383 27.4831 230.387 28.2513 229.15 28.707C227.913 29.1628 226.474 29.3906 224.834 29.3906C222.998 29.3906 221.435 29.2604 220.146 29C218.857 28.7396 217.757 28.2839 216.845 27.6328ZM241.876 29C241.095 29 240.704 28.6094 240.704 27.8281V9.66406C240.704 8.88281 241.095 8.49219 241.876 8.49219H245.001C245.782 8.49219 246.173 8.88281 246.173 9.66406V27.8281C246.173 28.6094 245.782 29 245.001 29H241.876ZM241.876 5.48438C241.095 5.48438 240.704 5.09375 240.704 4.3125V1.8125C240.704 1.03125 241.095 0.640625 241.876 0.640625H245.001C245.782 0.640625 246.173 1.03125 246.173 1.8125V4.3125C246.173 5.09375 245.782 5.48438 245.001 5.48438H241.876ZM254.191 18.7461C254.191 15.4258 255.025 12.8216 256.691 10.9336C258.358 9.04557 260.917 8.10156 264.367 8.10156C266.385 8.10156 267.954 8.36849 269.074 8.90234C270.194 9.4362 271.092 10.2174 271.77 11.2461C272.173 11.8581 272.108 12.3398 271.574 12.6914L269.504 14.0586C268.918 14.4492 268.404 14.2995 267.961 13.6094C267.74 13.2708 267.316 12.9062 266.691 12.5156C266.066 12.125 265.292 11.9297 264.367 11.9297C262.896 11.9297 261.796 12.4505 261.066 13.4922C260.337 14.5208 259.973 16.2721 259.973 18.7461C259.973 21.2201 260.337 22.9779 261.066 24.0195C261.796 25.0482 262.896 25.5625 264.367 25.5625C265.422 25.5625 266.275 25.3411 266.926 24.8984C267.577 24.4557 268.189 23.8828 268.762 23.1797C269.257 22.5807 269.777 22.4961 270.324 22.9258L272.141 24.3516C272.688 24.7812 272.72 25.3542 272.238 26.0703C271.73 26.8255 270.865 27.5677 269.641 28.2969C268.43 29.026 266.672 29.3906 264.367 29.3906C260.917 29.3906 258.358 28.4466 256.691 26.5586C255.025 24.6706 254.191 22.0664 254.191 18.7461Z" fill="url(#paint0_linear_915_3789)"/>
<defs>
<linearGradient id="paint0_linear_915_3789" x1="278" y1="11.5" x2="-14" y2="11.5" gradientUnits="userSpaceOnUse">
<stop stop-color="#427880"/>
<stop offset="1" stop-color="#76D7E6"/>
</linearGradient>
</defs>
</svg>
